<mxfile host="app.diagrams.net" modified="2021-01-04T09:48:22.069Z" agent="5.0 (Windows NT 10.0; Win64; x64) AppleWebKit/537.36 (KHTML, like Gecko) Chrome/87.0.4280.88 Safari/537.36" etag="nkJcpViSqdstayClv8d8" version="14.1.8" type="github">
  <diagram id="wUcj6TpqQT-2pD5E3jDh" name="Page-1">
    <mxGraphModel dx="1398" dy="632" grid="1" gridSize="10" guides="1" tooltips="1" connect="1" arrows="1" fold="1" page="1" pageScale="1" pageWidth="827" pageHeight="1169" math="0" shadow="0">
      <root>
        <mxCell id="0" />
        <mxCell id="1" parent="0" />
        <mxCell id="gkiq-FwWlRe9wR_wcrEF-8" style="edgeStyle=orthogonalEdgeStyle;rounded=0;orthogonalLoop=1;jettySize=auto;html=1;" edge="1" parent="1" source="gkiq-FwWlRe9wR_wcrEF-1" target="gkiq-FwWlRe9wR_wcrEF-7">
          <mxGeometry relative="1" as="geometry" />
        </mxCell>
        <mxCell id="gkiq-FwWlRe9wR_wcrEF-19" style="edgeStyle=orthogonalEdgeStyle;rounded=0;orthogonalLoop=1;jettySize=auto;html=1;entryX=0;entryY=0.5;entryDx=0;entryDy=0;" edge="1" parent="1" source="gkiq-FwWlRe9wR_wcrEF-1" target="gkiq-FwWlRe9wR_wcrEF-10">
          <mxGeometry relative="1" as="geometry">
            <Array as="points">
              <mxPoint x="250" y="260" />
            </Array>
          </mxGeometry>
        </mxCell>
        <mxCell id="gkiq-FwWlRe9wR_wcrEF-1" value="项目远程仓库" style="rounded=1;whiteSpace=wrap;html=1;" vertex="1" parent="1">
          <mxGeometry x="190" y="340" width="120" height="60" as="geometry" />
        </mxCell>
        <mxCell id="gkiq-FwWlRe9wR_wcrEF-11" style="edgeStyle=orthogonalEdgeStyle;rounded=0;orthogonalLoop=1;jettySize=auto;html=1;" edge="1" parent="1" source="gkiq-FwWlRe9wR_wcrEF-10" target="gkiq-FwWlRe9wR_wcrEF-7">
          <mxGeometry relative="1" as="geometry">
            <Array as="points">
              <mxPoint x="470" y="300" />
              <mxPoint x="470" y="300" />
            </Array>
          </mxGeometry>
        </mxCell>
        <mxCell id="gkiq-FwWlRe9wR_wcrEF-13" style="edgeStyle=orthogonalEdgeStyle;rounded=0;orthogonalLoop=1;jettySize=auto;html=1;exitX=0.5;exitY=1;exitDx=0;exitDy=0;" edge="1" parent="1" source="gkiq-FwWlRe9wR_wcrEF-7" target="gkiq-FwWlRe9wR_wcrEF-12">
          <mxGeometry relative="1" as="geometry" />
        </mxCell>
        <mxCell id="gkiq-FwWlRe9wR_wcrEF-7" value="个人远程仓库" style="rounded=1;whiteSpace=wrap;html=1;" vertex="1" parent="1">
          <mxGeometry x="384" y="340" width="120" height="60" as="geometry" />
        </mxCell>
        <mxCell id="gkiq-FwWlRe9wR_wcrEF-9" value="1.fork" style="text;html=1;strokeColor=none;fillColor=none;align=center;verticalAlign=middle;whiteSpace=wrap;rounded=0;" vertex="1" parent="1">
          <mxGeometry x="320" y="350" width="40" height="20" as="geometry" />
        </mxCell>
        <mxCell id="gkiq-FwWlRe9wR_wcrEF-10" value="本地仓库" style="rounded=1;whiteSpace=wrap;html=1;" vertex="1" parent="1">
          <mxGeometry x="384" y="230" width="120" height="60" as="geometry" />
        </mxCell>
        <mxCell id="gkiq-FwWlRe9wR_wcrEF-32" style="edgeStyle=orthogonalEdgeStyle;rounded=0;orthogonalLoop=1;jettySize=auto;html=1;entryX=0.5;entryY=1;entryDx=0;entryDy=0;" edge="1" parent="1" source="gkiq-FwWlRe9wR_wcrEF-12" target="gkiq-FwWlRe9wR_wcrEF-1">
          <mxGeometry relative="1" as="geometry" />
        </mxCell>
        <mxCell id="gkiq-FwWlRe9wR_wcrEF-12" value="Code Review" style="rounded=1;whiteSpace=wrap;html=1;" vertex="1" parent="1">
          <mxGeometry x="384" y="450" width="120" height="60" as="geometry" />
        </mxCell>
        <mxCell id="gkiq-FwWlRe9wR_wcrEF-16" value="push" style="text;html=1;align=center;verticalAlign=middle;resizable=0;points=[];autosize=1;" vertex="1" parent="1">
          <mxGeometry x="470" y="300" width="40" height="20" as="geometry" />
        </mxCell>
        <mxCell id="gkiq-FwWlRe9wR_wcrEF-20" value="pull" style="text;html=1;align=center;verticalAlign=middle;resizable=0;points=[];autosize=1;" vertex="1" parent="1">
          <mxGeometry x="275" y="240" width="30" height="20" as="geometry" />
        </mxCell>
        <mxCell id="gkiq-FwWlRe9wR_wcrEF-22" style="edgeStyle=orthogonalEdgeStyle;rounded=0;orthogonalLoop=1;jettySize=auto;html=1;" edge="1" parent="1" source="gkiq-FwWlRe9wR_wcrEF-7" target="gkiq-FwWlRe9wR_wcrEF-10">
          <mxGeometry relative="1" as="geometry">
            <mxPoint x="444" y="340" as="sourcePoint" />
            <mxPoint x="444" y="290" as="targetPoint" />
            <Array as="points">
              <mxPoint x="410" y="310" />
              <mxPoint x="410" y="310" />
            </Array>
          </mxGeometry>
        </mxCell>
        <mxCell id="gkiq-FwWlRe9wR_wcrEF-24" value="2.clone" style="text;html=1;align=center;verticalAlign=middle;resizable=0;points=[];autosize=1;" vertex="1" parent="1">
          <mxGeometry x="365" y="300" width="50" height="20" as="geometry" />
        </mxCell>
        <mxCell id="gkiq-FwWlRe9wR_wcrEF-31" value="merge request" style="text;html=1;align=center;verticalAlign=middle;resizable=0;points=[];autosize=1;" vertex="1" parent="1">
          <mxGeometry x="445" y="410" width="90" height="20" as="geometry" />
        </mxCell>
        <mxCell id="gkiq-FwWlRe9wR_wcrEF-33" value="merge" style="text;html=1;align=center;verticalAlign=middle;resizable=0;points=[];autosize=1;" vertex="1" parent="1">
          <mxGeometry x="200" y="430" width="50" height="20" as="geometry" />
        </mxCell>
      </root>
    </mxGraphModel>
  </diagram>
</mxfile>
